<svg xmlns="http://www.w3.org/2000/svg" viewBox="0 0 800 1000" preserveAspectRatio="xMidYMid slice" role="img" aria-label="Placeholder bouquet"><defs><linearGradient id="bg" x1="0" y1="0" x2="0" y2="1"><stop offset="0%" stop-color="#fff5f1"/><stop offset="100%" stop-color="#fde7e1"/></linearGradient><radialGradient id="bloom" cx="50%" cy="50%" r="50%"><stop offset="0%" stop-color="#f8b4c2"/><stop offset="60%" stop-color="#f47fa0"/><stop offset="100%" stop-color="#d65f86"/></radialGradient></defs><rect width="800" height="1000" fill="url(#bg)"/><path d="M250 620 L400 980 L550 620 Z" fill="#f3d6c4" stroke="#d8a48a" stroke-width="3"/><g stroke="#7da26a" stroke-width="6" stroke-linecap="round" fill="none" opacity="0.85"><path d="M380 600 Q390 740 395 880"/><path d="M400 590 Q400 740 400 890"/><path d="M420 600 Q410 740 405 880"/></g><g fill="#9fc28a" opacity="0.9"><ellipse cx="350" cy="540" rx="55" ry="22" transform="rotate(-25 350 540)"/><ellipse cx="450" cy="540" rx="55" ry="22" transform="rotate(25 450 540)"/></g><g><circle cx="400" cy="380" r="120" fill="url(#bloom)"/><circle cx="280" cy="450" r="80" fill="url(#bloom)" opacity="0.95"/><circle cx="520" cy="450" r="80" fill="url(#bloom)" opacity="0.95"/><circle cx="340" cy="290" r="70" fill="url(#bloom)" opacity="0.9"/><circle cx="460" cy="290" r="70" fill="url(#bloom)" opacity="0.9"/></g><text x="400" y="950" text-anchor="middle" font-family="Georgia, Playfair Display, serif" font-size="34" fill="#b07e7e" letter-spacing="3">Mushida</text></svg>